<svg id="Layer_1" data-name="Layer 1" xmlns="http://www.w3.org/2000/svg" viewBox="0 0 2720 725.33">
  <defs>
    <style>
      .cls-1 {
        fill: #c9d4e3;
      }

      .cls-2 {
        fill: #6497af;
      }

      .cls-3 {
        fill: #fff;
      }

      .cls-4 {
        fill: #de1dff;
      }

      .cls-5 {
        fill: #ebff24;
      }
    </style>
  </defs>
  <g id="LOGO_1" data-name="LOGO 1">
    <path class="cls-1" d="M159,18.67l1.44,2,.38.67c-1.23,4.94-1.16,10.05-1,15.1q-.06,154.29,0,308.58c.22,5-1,10.4,1.38,15.08-1.87,5.44-1.28,11.27-1.37,16.92q.09,145.23,0,290.48a66.09,66.09,0,0,0,.86,7.68c-.23,10.49-.58,21-.49,31.45h-.74c-.34-.49-1-1.47-1.37-2,1.83-5.21.95-10.76.93-16.15-.32-7.49.12-15,.34-22.43.06-96.32-.08-192.65.07-289,.1-4.06.22-8.18-1.09-12.08a51.06,51.06,0,0,0,.73-10.25c-.2-106.66.22-213.33-.21-320,.21-5.39,0-10.78.22-16.17Z"/>
    <path class="cls-2" d="M160.39,20.71c20.9,32.77,41.44,65.79,62.29,98.6,1.7,2.89,4.26,5.69,3.91,9.28q-.06,62.85,0,125.69c.14,3.24-1.84,6-3.14,8.79-16.71,32.5-33.3,65.08-50,97.57a10.06,10.06,0,0,0-1.23,4c-4.07,103.51-7.35,207.07-11.61,310.56a66.09,66.09,0,0,1-.86-7.68q.08-145.23,0-290.48c.09-5.65-.5-11.48,1.37-16.92,17.16-33.26,34.14-66.63,51.25-99.92,1.88-3.06,1.79-6.7,1.74-10.17-.25-41.4.24-82.83-.23-124.21-17.12-35.07-35.64-69.51-53.06-104.46l-.38-.67m137,111.7c15.45,23.21,31.14,46.26,46.56,69.48.6,27.65.05,55.4.28,83.1-.16,2.78.55,5.86-1.1,8.33-12.48,22.36-24.81,44.81-37.38,67.13a12.68,12.68,0,0,0-1.67,7c-2.36,76-5.91,152-7.74,228l-1,.86.1-.55a38.52,38.52,0,0,0,.78-7.78c-.32-75,.22-149.93-.29-224.87l.11-.54c12.79-21.94,24.67-44.39,37.24-66.45,1.51-2.53,2.88-5.25,2.61-8.3q-.09-41.24,0-82.48a10.75,10.75,0,0,0-1.3-5.53c-12.35-22.48-25.23-44.71-37.17-67.4Z"/>
    <path class="cls-3" d="M160.77,21.38c17.42,35,35.94,69.39,53.06,104.46.47,41.38,0,82.81.23,124.21.05,3.47.14,7.11-1.74,10.17-17.11,33.29-34.09,66.66-51.25,99.92-2.36-4.68-1.16-10.07-1.38-15.08q.1-154.3,0-308.58c-.12-5-.19-10.16,1-15.1M295.58,132.47l.56-2.71,1.26,2.65c11.94,22.69,24.82,44.92,37.17,67.4a10.75,10.75,0,0,1,1.3,5.53q0,41.25,0,82.48c.27,3.05-1.1,5.77-2.61,8.3-12.57,22.06-24.45,44.51-37.24,66.45-.53-6.79-.32-13.59-.32-20.39-.1-69.9.14-139.81-.13-209.71M287,378.19c2.91-5.06,5.38-10.4,8.9-15.08.51,74.94,0,149.91.29,224.87a38.52,38.52,0,0,1-.78,7.78c-1-1.53-1.87-3.09-2.7-4.7-11.74-22.87-25.28-44.85-37-67.72-.57-26.84,0-53.74-.26-80.59.08-3.59-.55-7.5,1.53-10.67,10-17.93,20-35.93,30-53.89M158.21,365.08c1.31,3.9,1.19,8,1.09,12.08-.15,96.32,0,192.65-.07,289-.22,7.47-.66,14.94-.34,22.43,0,5.39.9,10.94-.93,16.15-15.42-31.39-31.82-62.29-47.59-93.51-2.2-4.78-6-9.23-5.67-14.79.09-38.65,0-77.3,0-115.93.18-5-.93-10.34,1.76-14.81,17.36-33.47,34.24-67.19,51.72-100.59Z"/>
    <path class="cls-4" d="M146.82,359.39q5.9-162.27,11.91-324.55c.43,106.66,0,213.33.21,320a51.06,51.06,0,0,1-.73,10.25c-17.48,33.4-34.36,67.12-51.72,100.59-2.69,4.47-1.58,9.86-1.76,14.81,0,38.63.06,77.28,0,115.93-.37,5.56,3.47,10,5.67,14.79,15.77,31.22,32.17,62.12,47.59,93.51-21.94-35.13-44.29-70-66.13-105.2v-132L92,470.3c2.71-7,6.62-13.41,9.87-20.14q20-38.85,39.82-77.76c2.08-4.15,5-8.18,5.09-13m140.48,1c2.78-76,5.38-152,8.28-227.95.27,69.9,0,139.81.13,209.71,0,6.8-.21,13.6.32,20.39l-.11.54c-3.52,4.68-6,10-8.9,15.08-10,18-19.94,36-30,53.89-2.08,3.17-1.45,7.08-1.53,10.67.25,26.85-.31,53.75.26,80.59,11.68,22.87,25.22,44.85,37,67.72-13.44-19.21-26.16-38.95-39.43-58.31-2-3.12-4.36-6-6-9.38-.28-28.74,0-57.5-.12-86.25-.27-1.87.67-3.52,1.53-5.08,12.57-22.46,25-45,37.55-67.46a7.24,7.24,0,0,0,1.06-4.16Z"/>
    <path class="cls-5" d="M247.14,218.16c2.87-7.26,13.9-8.29,18.29-2,4.65,5.87,1.15,15.21-6,17-.15,27,.23,54-.18,81-14.66,27-29.84,53.83-44.77,80.72-1.18,1.76-1.25,3.88-1.17,5.93.13,24.05-.11,48.09.11,72.14,7.36,1.7,10.69,11.62,5.63,17.27-4.66,6.31-15.88,4.54-18.26-3-2.47-5.87,1.52-12.44,7.26-14.39.15-25.41,0-50.82.08-76.25,0-1.79,1.19-3.24,1.91-4.77,14.34-25.68,28.57-51.4,42.91-77.08a7.45,7.45,0,0,0,1.25-4.74c0-25.59,0-51.2,0-76.79-6.06-2-10-9.15-7-15.14"/>
  </g>
  <g>
    <path class="cls-5" d="M537.3,277.93a17.53,17.53,0,0,1-12.85-5.41A17.91,17.91,0,0,1,519,259.34q0-8.44,5.58-13.36a19.12,19.12,0,0,1,13-4.9,18.71,18.71,0,0,1,12.68,4.9q5.58,4.91,5.58,13.36a18.47,18.47,0,0,1-18.59,18.59ZM537.63,498q-6.07,0-9.63-3.55t-3.55-9.63V326.27q0-6.09,3.55-9.63t9.63-3.55a12.57,12.57,0,0,1,9.3,3.55q3.55,3.54,3.55,9.63V484.82q0,6.07-3.55,9.63A12.57,12.57,0,0,1,537.63,498Z"/>
    <path class="cls-5" d="M629.92,498q-6.09,0-9.64-3.55a12.6,12.6,0,0,1-3.55-9.3V326.27q0-6.09,3.55-9.63t9.64-3.55a12.53,12.53,0,0,1,9.29,3.55q3.56,3.54,3.55,9.63V485.15A12.19,12.19,0,0,1,629.92,498Zm145.36,0a12.83,12.83,0,0,1-9.47-3.72,12.4,12.4,0,0,1-3.71-9.13V397.26q0-21-8-34.48a50.81,50.81,0,0,0-21.63-20.28q-13.69-6.76-30.94-6.76a68.13,68.13,0,0,0-29.91,6.42,53.18,53.18,0,0,0-21.13,17.58,43.21,43.21,0,0,0-7.78,25.35H624.17a72.85,72.85,0,0,1,11.5-38,77.11,77.11,0,0,1,28.73-26.37,82.88,82.88,0,0,1,39.89-9.63q24,0,42.93,10a73.32,73.32,0,0,1,29.92,29.24q11,19.28,11,47v87.89A12.7,12.7,0,0,1,775.28,498Z"/>
    <path class="cls-5" d="M834.43,342.5a11.66,11.66,0,0,1-8.62-3.21,10.8,10.8,0,0,1-3.21-8,11.21,11.21,0,0,1,3.21-8.28,11.66,11.66,0,0,1,8.62-3.21H923a11.78,11.78,0,0,1,8.45,3.21,10.88,10.88,0,0,1,3.38,8.28,10.5,10.5,0,0,1-3.38,8A11.78,11.78,0,0,1,923,342.5ZM868.92,498a12.39,12.39,0,0,1-9.13-3.72,12.81,12.81,0,0,1-3.72-9.46V311.4q0-22.65,7.94-40.23t25.53-27.89q17.57-10.31,47-10.31a105.56,105.56,0,0,1,25.69,3q12.16,3,19.77,8.62t7.61,13.69q0,14.55-16.56,14.54A19.82,19.82,0,0,1,962.56,270a93.78,93.78,0,0,1-9.64-6.77,62,62,0,0,0-10.65-6.76,30.78,30.78,0,0,0-13.86-2.87,51.65,51.65,0,0,0-24,5.41q-10.49,5.42-16.4,18.08T882.1,311.4V484.82A12.73,12.73,0,0,1,868.92,498Zm104.79,0q-6.09,0-9.63-3.55t-3.55-9.63V326.27q0-6.09,3.55-9.63t9.63-3.55a12.57,12.57,0,0,1,9.3,3.55q3.54,3.54,3.55,9.63V484.82q0,6.07-3.55,9.63A12.57,12.57,0,0,1,973.71,498Z"/>
    <path class="cls-5" d="M1063.63,498q-6.09,0-9.64-3.55a12.6,12.6,0,0,1-3.55-9.3V326.27q0-6.09,3.55-9.63t9.64-3.55a12.53,12.53,0,0,1,9.29,3.55q3.55,3.54,3.55,9.63V485.15A12.19,12.19,0,0,1,1063.63,498ZM1209,498a12.83,12.83,0,0,1-9.47-3.72,12.4,12.4,0,0,1-3.71-9.13V397.26q0-21-8-34.48a50.81,50.81,0,0,0-21.63-20.28q-13.7-6.76-30.94-6.76a68.13,68.13,0,0,0-29.91,6.42,53.18,53.18,0,0,0-21.13,17.58,43.21,43.21,0,0,0-7.78,25.35h-18.59a72.85,72.85,0,0,1,11.5-38,77,77,0,0,1,28.73-26.37,82.88,82.88,0,0,1,39.89-9.63q24,0,42.93,10a73.32,73.32,0,0,1,29.92,29.24q11,19.28,11,47v87.89A12.7,12.7,0,0,1,1209,498Z"/>
    <path class="cls-5" d="M1297.56,277.93a17.53,17.53,0,0,1-12.85-5.41,17.91,17.91,0,0,1-5.41-13.18q0-8.44,5.58-13.36a19.12,19.12,0,0,1,13-4.9,18.71,18.71,0,0,1,12.68,4.9q5.58,4.91,5.58,13.36a18.47,18.47,0,0,1-18.59,18.59Zm.33,220.07c-4.05,0-7.27-1.18-9.63-3.55s-3.55-5.58-3.55-9.63V326.27q0-6.09,3.55-9.63c2.36-2.37,5.58-3.55,9.63-3.55a12.57,12.57,0,0,1,9.3,3.55q3.55,3.54,3.55,9.63V484.82q0,6.07-3.55,9.63A12.57,12.57,0,0,1,1297.89,498Z"/>
    <path class="cls-5" d="M1365.16,342.5a11.78,11.78,0,0,1-8.45-3.21,10.5,10.5,0,0,1-3.38-8,10.88,10.88,0,0,1,3.38-8.28,11.78,11.78,0,0,1,8.45-3.21h86.2a11.81,11.81,0,0,1,8.46,3.21,10.92,10.92,0,0,1,3.38,8.28,10.54,10.54,0,0,1-3.38,8,11.81,11.81,0,0,1-8.46,3.21ZM1449.34,498q-17.92,0-31.95-8.45a60.72,60.72,0,0,1-22.14-23.16q-8.12-14.7-8.12-33.63V267.45a13.21,13.21,0,0,1,3.55-9.47,12.31,12.31,0,0,1,9.3-3.71,12.7,12.7,0,0,1,13.18,13.18V432.76q0,17.24,10.15,28.22t26,11h9.12a11.31,11.31,0,0,1,8.79,3.72,13.54,13.54,0,0,1,3.38,9.46,11.77,11.77,0,0,1-4.05,9.3,14.85,14.85,0,0,1-10.15,3.55Z"/>
    <path class="cls-5" d="M1582.19,492.25a12.31,12.31,0,0,1-9.47.85,13,13,0,0,1-7.1-6.59l-75.38-156.18a11.72,11.72,0,0,1-.68-9.47,12.45,12.45,0,0,1,6.76-6.76,12.31,12.31,0,0,1,9.47-.84,11.75,11.75,0,0,1,6.76,6.59l74,156.18q2.7,5.07,1.69,9.46T1582.19,492.25Zm-37.53,86.21a16.64,16.64,0,0,1-6.08-1.36q-11.5-5.07-6.42-16.22l109.19-240.69q5.07-10.81,16.22-6.09,11.49,4.74,6.43,15.89L1554.47,570.68Q1551.08,578.45,1544.66,578.46Z"/>
  </g>
  <g>
    <path class="cls-3" d="M1811.14,422.61q-6.08,0-9.63-3.71a13.14,13.14,0,0,1-3.55-9.47V247.17q0-6.09,3.55-9.64t9.63-3.55a12.61,12.61,0,0,1,9.3,3.55q3.55,3.56,3.55,9.64V409.43a13.14,13.14,0,0,1-3.55,9.47A12.27,12.27,0,0,1,1811.14,422.61Zm0,75.39q-6.08,0-9.63-3.55a12.56,12.56,0,0,1-3.55-9.3V326.27q0-6.09,3.55-9.63t9.63-3.55a12.57,12.57,0,0,1,9.3,3.55q3.55,3.54,3.55,9.63V485.15A12.19,12.19,0,0,1,1811.14,498Zm145.37,0a12.82,12.82,0,0,1-9.47-3.72,12.41,12.41,0,0,1-3.72-9.13V397.26q0-21-7.94-34.48a50.78,50.78,0,0,0-21.64-20.28q-13.68-6.76-30.93-6.76a68.18,68.18,0,0,0-29.92,6.42,53.32,53.32,0,0,0-21.13,17.58,43.28,43.28,0,0,0-7.77,25.35H1805.4a72.93,72.93,0,0,1,11.49-38,77.19,77.19,0,0,1,28.73-26.37,82.91,82.91,0,0,1,39.89-9.63q24,0,42.94,10a73.32,73.32,0,0,1,29.92,29.24q11,19.28,11,47v87.89A12.7,12.7,0,0,1,1956.51,498Z"/>
    <path class="cls-3" d="M2108.29,499.69q-26,0-46.65-12.34A89.9,89.9,0,0,1,2029,453.72q-12-21.3-12-48,0-27,12.34-48.34A90.91,90.91,0,0,1,2063,323.74q21.3-12.35,48-12.34t47.84,12.34a91.33,91.33,0,0,1,33.46,33.63q12.35,21.3,12.68,48.34l-10.48,8.12q0,24.33-11.32,43.77a83.93,83.93,0,0,1-30.77,30.77Q2133,499.7,2108.29,499.69ZM2111,476q19.61,0,35-9.13a66.26,66.26,0,0,0,24.34-25.18,72.68,72.68,0,0,0,9-36q0-20.28-9-36.17A67.93,67.93,0,0,0,2146,344.36q-15.39-9.3-35-9.3a66.53,66.53,0,0,0-34.82,9.3,68.75,68.75,0,0,0-24.68,25.18q-9.12,15.9-9.12,36.17a71.64,71.64,0,0,0,9.12,36A66.91,66.91,0,0,0,2111,476Zm80.8,22a13.14,13.14,0,0,1-9.47-3.55,12.26,12.26,0,0,1-3.72-9.3v-57.8l6.42-26.71,19.95,5.07v79.44a12.26,12.26,0,0,1-3.72,9.3A13.15,13.15,0,0,1,2191.79,498Z"/>
    <path class="cls-3" d="M2320.24,499.69a120.45,120.45,0,0,1-39.55-6.76q-19.62-6.76-31.78-20.28a10.84,10.84,0,0,1-3-9.13,13.68,13.68,0,0,1,5.07-8.79,13.47,13.47,0,0,1,18.25,1.69q8.11,9.46,21.47,14.54a82.72,82.72,0,0,0,29.58,5.07q25,0,36.17-8.62t11.49-20.79q0-12.18-11.49-20.12t-37.86-12.34q-34.15-5.4-50-18.93t-15.89-32.11q0-17.25,9.13-28.74t24.34-17.24a94,94,0,0,1,33.46-5.74q22.65,0,39.05,7.77a71.53,71.53,0,0,1,26.54,21,11.86,11.86,0,0,1,2.7,9.13q-.67,4.74-5.41,7.77a13.56,13.56,0,0,1-9.3,1.52,15.05,15.05,0,0,1-8.95-4.9,51.47,51.47,0,0,0-19.61-14.36q-11.16-4.57-25.69-4.57-18.6,0-29.75,7.61T2278,361.43a22.19,22.19,0,0,0,4.23,13.52q4.22,5.74,14.54,10.14t28.9,7.44q25.35,4.05,40.06,12t21,18.59a45,45,0,0,1,6.25,23.16,44.25,44.25,0,0,1-9.3,27.89q-9.3,12-25.69,18.76T2320.24,499.69Z"/>
    <path class="cls-3" d="M2451.06,422.61q-6.09,0-9.63-3.71a13.14,13.14,0,0,1-3.55-9.47V247.17q0-6.09,3.55-9.64t9.63-3.55a12.61,12.61,0,0,1,9.3,3.55q3.54,3.56,3.55,9.64V409.43a13.18,13.18,0,0,1-3.55,9.47A12.27,12.27,0,0,1,2451.06,422.61Zm0,75.39q-6.09,0-9.63-3.55a12.56,12.56,0,0,1-3.55-9.3V326.27q0-6.09,3.55-9.63t9.63-3.55a12.57,12.57,0,0,1,9.3,3.55q3.54,3.54,3.55,9.63V485.15A12.19,12.19,0,0,1,2451.06,498Zm145.36,0a12.79,12.79,0,0,1-9.46-3.72,12.37,12.37,0,0,1-3.72-9.13V397.26q0-21-7.95-34.48a50.7,50.7,0,0,0-21.63-20.28q-13.69-6.76-30.93-6.76a68.14,68.14,0,0,0-29.92,6.42,53.18,53.18,0,0,0-21.13,17.58,43.28,43.28,0,0,0-7.77,25.35h-18.6a72.85,72.85,0,0,1,11.5-38,77.11,77.11,0,0,1,28.73-26.37,82.88,82.88,0,0,1,39.89-9.63q24,0,42.93,10a73.26,73.26,0,0,1,29.92,29.24q11,19.28,11,47v87.89A12.7,12.7,0,0,1,2596.42,498Z"/>
  </g>
</svg>
